<?xml version="1.0" encoding="UTF-8"?>
<svg width="14px" height="14px" viewBox="0 0 14 14" version="1.1" xmlns="http://www.w3.org/2000/svg" xmlns:xlink="http://www.w3.org/1999/xlink">
    <!-- Generator: Sketch 52.2 (67145) - http://www.bohemiancoding.com/sketch -->
    <title>games</title>
    <desc>Created with Sketch.</desc>
    <g id="Design" stroke="none" stroke-width="1" fill="none" fill-rule="evenodd">
        <g id="SVG" transform="translate(-115.000000, -40.000000)" fill="#FFFFFF" fill-rule="nonzero">
            <g id="games" transform="translate(115.000000, 40.000000)">
                <path d="M6.15625,0.53125 L0.8125,0.53125 C0.6578125,0.53125 0.53125,0.6578125 0.53125,0.8125 L0.53125,6.15625 C0.53125,6.3109375 0.6578125,6.4375 0.8125,6.4375 L6.15625,6.4375 C6.3109375,6.4375 6.4375,6.3109375 6.4375,6.15625 L6.4375,0.8125 C6.4375,0.6578125 6.3109375,0.53125 6.15625,0.53125 Z M5.2421875,5.2421875 L1.7265625,5.2421875 L1.7265625,1.7265625 L5.2421875,1.7265625 L5.2421875,5.2421875 Z M13.1875,0.53125 L7.84375,0.53125 C7.6890625,0.53125 7.5625,0.6578125 7.5625,0.8125 L7.5625,6.15625 C7.5625,6.3109375 7.6890625,6.4375 7.84375,6.4375 L13.1875,6.4375 C13.3421875,6.4375 13.46875,6.3109375 13.46875,6.15625 L13.46875,0.8125 C13.46875,0.6578125 13.3421875,0.53125 13.1875,0.53125 Z M12.2734375,5.2421875 L8.7578125,5.2421875 L8.7578125,1.7265625 L12.2734375,1.7265625 L12.2734375,5.2421875 Z M6.15625,7.5625 L0.8125,7.5625 C0.6578125,7.5625 0.53125,7.6890625 0.53125,7.84375 L0.53125,13.1875 C0.53125,13.3421875 0.6578125,13.46875 0.8125,13.46875 L6.15625,13.46875 C6.3109375,13.46875 6.4375,13.3421875 6.4375,13.1875 L6.4375,7.84375 C6.4375,7.6890625 6.3109375,7.5625 6.15625,7.5625 Z M5.2421875,12.2734375 L1.7265625,12.2734375 L1.7265625,8.7578125 L5.2421875,8.7578125 L5.2421875,12.2734375 Z M13.1875,7.5625 L7.84375,7.5625 C7.6890625,7.5625 7.5625,7.6890625 7.5625,7.84375 L7.5625,13.1875 C7.5625,13.3421875 7.6890625,13.46875 7.84375,13.46875 L13.1875,13.46875 C13.3421875,13.46875 13.46875,13.3421875 13.46875,13.1875 L13.46875,7.84375 C13.46875,7.6890625 13.3421875,7.5625 13.1875,7.5625 Z M12.2734375,12.2734375 L8.7578125,12.2734375 L8.7578125,8.7578125 L12.2734375,8.7578125 L12.2734375,12.2734375 Z" id="Shape"></path>
            </g>
        </g>
    </g>
</svg>