<?xml version="1.0" encoding="UTF-8"?>
<svg width="30px" height="28px" viewBox="0 0 30 28" version="1.1" xmlns="http://www.w3.org/2000/svg" xmlns:xlink="http://www.w3.org/1999/xlink">
    <!-- Generator: Sketch 52.2 (67145) - http://www.bohemiancoding.com/sketch -->
    <title>home</title>
    <desc>Created with Sketch.</desc>
    <g id="Design" stroke="none" stroke-width="1" fill="none" fill-rule="evenodd">
        <g id="SVG" transform="translate(-48.000000, -33.000000)">
            <g id="home" transform="translate(47.000000, 31.000000)">
                <rect id="Rectangle" fill="#000000" opacity="0" x="0" y="0" width="32" height="32"></rect>
                <path d="M29.578125,15.78125 L17.503125,3.7125 L16.69375,2.903125 C16.309375,2.521875 15.690625,2.521875 15.30625,2.903125 L2.421875,15.78125 C2.0375,16.165625 1.83125,16.675 1.834375,17.21875 C1.846875,18.31875 2.7625,19.196875 3.8625,19.196875 L5.190625,19.196875 L5.190625,29.375 L26.809375,29.375 L26.809375,19.196875 L28.165625,19.196875 C28.7,19.196875 29.203125,18.9875 29.58125,18.609375 C29.959375,18.23125 30.165625,17.728125 30.165625,17.19375 C30.165625,16.6625 29.95625,16.159375 29.578125,15.78125 Z M17.75,27.125 L14.25,27.125 L14.25,20.75 L17.75,20.75 L17.75,27.125 Z M24.559375,16.946875 L24.559375,27.125 L19.75,27.125 L19.75,20 C19.75,19.309375 19.190625,18.75 18.5,18.75 L13.5,18.75 C12.809375,18.75 12.25,19.309375 12.25,20 L12.25,27.125 L7.440625,27.125 L7.440625,16.946875 L4.440625,16.946875 L16.003125,5.39375 L16.725,6.115625 L27.5625,16.946875 L24.559375,16.946875 Z" id="Shape" fill="#FFFFFF" fill-rule="nonzero"></path>
            </g>
        </g>
    </g>
</svg>