<?xml version="1.0" encoding="UTF-8"?>
<svg width="14px" height="16px" viewBox="0 0 14 16" version="1.1" xmlns="http://www.w3.org/2000/svg" xmlns:xlink="http://www.w3.org/1999/xlink">
    <!-- Generator: Sketch 52.2 (67145) - http://www.bohemiancoding.com/sketch -->
    <title>members</title>
    <desc>Created with Sketch.</desc>
    <g id="Design" stroke="none" stroke-width="1" fill="none" fill-rule="evenodd">
        <g id="SVG" transform="translate(-143.000000, -39.000000)" fill="#FFFFFF" fill-rule="nonzero">
            <g id="members" transform="translate(142.000000, 39.000000)">
                <path d="M13.4878906,11.3029297 C13.0414062,10.8564453 12.5263672,10.4996094 11.9691406,10.2412109 C12.7654297,9.59609375 13.2734375,8.61171875 13.2734375,7.5078125 C13.2734375,5.56015625 11.6492187,3.96230469 9.7015625,3.9921875 C7.78378906,4.02207031 6.23867187,5.58476562 6.23867187,7.5078125 C6.23867187,8.61171875 6.7484375,9.59609375 7.54296875,10.2412109 C6.98574219,10.4996094 6.47246094,10.8546875 6.02421875,11.3029297 C5.06445312,12.2644531 4.51953125,13.5335937 4.484375,14.8871094 C4.48261719,14.9662109 4.54589844,15.03125 4.625,15.03125 L5.609375,15.03125 C5.68496094,15.03125 5.74824219,14.9714844 5.75,14.8958984 C5.78339844,13.8763672 6.19648437,12.921875 6.92246094,12.1976562 C7.68007812,11.4400391 8.68730469,11.0234375 9.7578125,11.0234375 C10.8283203,11.0234375 11.8355469,11.4400391 12.5931641,12.1976562 C13.3173828,12.921875 13.7304687,13.8763672 13.765625,14.8958984 C13.7673828,14.9714844 13.8306641,15.03125 13.90625,15.03125 L14.890625,15.03125 C14.9697266,15.03125 15.0330078,14.9662109 15.03125,14.8871094 C14.9960937,13.5335937 14.4511719,12.2644531 13.4878906,11.3029297 Z M9.7578125,9.7578125 C9.15664062,9.7578125 8.590625,9.52402344 8.16699219,9.09863281 C7.73632812,8.66796875 7.50078125,8.09492187 7.5078125,7.48496094 C7.51308594,6.90839844 7.74335937,6.35117187 8.14589844,5.93808594 C8.56777344,5.50566406 9.13203125,5.26484375 9.73496094,5.2578125 C10.3308594,5.25253906 10.9091797,5.48457031 11.3345703,5.90117187 C11.7705078,6.32832031 12.0095703,6.89960937 12.0095703,7.5078125 C12.0095703,8.10898437 11.7757812,8.67324219 11.3503906,9.09863281 C10.925,9.52402344 10.3589844,9.7578125 9.7578125,9.7578125 Z M5.35449219,7.971875 C5.33867187,7.81894531 5.32988281,7.66425781 5.32988281,7.5078125 C5.32988281,7.22832031 5.35625,6.95585938 5.40546875,6.69042969 C5.41777344,6.62714844 5.384375,6.56210938 5.32636719,6.53574219 C5.08730469,6.42851563 4.86757812,6.28085938 4.67773437,6.09453125 C4.22421875,5.6515625 3.97988281,5.05214844 3.99746094,4.41757813 C4.01328125,3.85332031 4.24003906,3.3171875 4.63554687,2.91289063 C5.06972656,2.46816406 5.65332031,2.22558594 6.27382812,2.23261719 C6.83457031,2.23789063 7.37597656,2.45410156 7.78554687,2.83730469 C7.92441406,2.96738281 8.04394531,3.11152344 8.14414062,3.26621094 C8.17929687,3.32070313 8.24785156,3.34355469 8.30761719,3.32246094 C8.61699219,3.21523438 8.94394531,3.13964844 9.2796875,3.10449219 C9.378125,3.09394531 9.434375,2.98847656 9.39042969,2.90058594 C8.81914062,1.7703125 7.65195312,0.98984375 6.30195312,0.96875 C4.35253906,0.938867188 2.72832031,2.53671875 2.72832031,4.48261719 C2.72832031,5.58652344 3.23632812,6.57089844 4.03261719,7.21601563 C3.47363281,7.47441406 2.95859375,7.83125 2.51210937,8.27773438 C1.54882812,9.23925781 1.00390625,10.5083984 0.96875,11.8636719 C0.966992187,11.9427734 1.03027344,12.0078125 1.109375,12.0078125 L2.09550781,12.0078125 C2.17109375,12.0078125 2.234375,11.9480469 2.23613281,11.8724609 C2.26953125,10.8529297 2.68261719,9.8984375 3.40859375,9.17421875 C3.92539062,8.65742188 4.55820312,8.29882813 5.24902344,8.12480469 C5.31757812,8.10722656 5.36328125,8.0421875 5.35449219,7.971875 Z" id="icon"></path>
            </g>
        </g>
    </g>
</svg>