<?xml version="1.0" encoding="UTF-8"?>
<svg width="16px" height="14px" viewBox="0 0 16 14" version="1.1" xmlns="http://www.w3.org/2000/svg" xmlns:xlink="http://www.w3.org/1999/xlink">
    <!-- Generator: Sketch 52.2 (67145) - http://www.bohemiancoding.com/sketch -->
    <title>news</title>
    <desc>Created with Sketch.</desc>
    <g id="Design" stroke="none" stroke-width="1" fill="none" fill-rule="evenodd">
        <g id="SVG" transform="translate(-257.000000, -40.000000)" fill="#FFFFFF" fill-rule="nonzero">
            <g id="news" transform="translate(257.000000, 40.000000)">
                <path d="M10.0021484,0.021484375 C9.8984375,0.021484375 9.79296875,0.049609375 9.69628906,0.114648437 L3.46484375,4.1875 L0.58203125,4.1875 C0.42734375,4.1875 0.30078125,4.3140625 0.30078125,4.46875 L0.30078125,9.53125 C0.30078125,9.6859375 0.42734375,9.8125 0.58203125,9.8125 L3.46484375,9.8125 L9.69628906,13.8853516 C9.79296875,13.9486328 9.90019531,13.9785156 10.0021484,13.9785156 C10.2957031,13.9785156 10.5664062,13.7447266 10.5664062,13.4142578 L10.5664062,0.585742187 C10.5664062,0.255273437 10.2957031,0.021484375 10.0021484,0.021484375 Z M9.30078125,12.1152344 L4.15742187,8.75253906 L3.84101562,8.546875 L1.56640625,8.546875 L1.56640625,5.453125 L3.84101562,5.453125 L4.15566406,5.24746094 L9.30078125,1.88476562 L9.30078125,12.1152344 Z M15.4179688,6.3671875 L13.1679688,6.3671875 C13.0132813,6.3671875 12.8867188,6.49375 12.8867188,6.6484375 L12.8867188,7.3515625 C12.8867188,7.50625 13.0132813,7.6328125 13.1679688,7.6328125 L15.4179688,7.6328125 C15.5726562,7.6328125 15.6992188,7.50625 15.6992188,7.3515625 L15.6992188,6.6484375 C15.6992188,6.49375 15.5726562,6.3671875 15.4179688,6.3671875 Z M14.6814453,10.9691406 L12.7425781,9.84941406 C12.6986328,9.82480469 12.6511719,9.8125 12.6037109,9.8125 C12.5070313,9.8125 12.4121094,9.86347656 12.3611328,9.953125 L12.0113281,10.5595703 C11.9339844,10.6931641 11.9796875,10.8654297 12.1132813,10.9427734 L14.0521484,12.0625 C14.0960937,12.0871094 14.1435547,12.0994141 14.1910156,12.0994141 C14.2876953,12.0994141 14.3826172,12.0484375 14.4335937,11.9587891 L14.7833984,11.3523437 C14.8607422,11.21875 14.8132812,11.0464844 14.6814453,10.9691406 Z M12.359375,4.046875 C12.4103516,4.13652344 12.5052734,4.1875 12.6019531,4.1875 C12.6494141,4.1875 12.696875,4.17519531 12.7408203,4.15058594 L14.6796875,3.03085937 C14.8132812,2.95351563 14.8589844,2.78125 14.7816406,2.64765625 L14.4335938,2.04296875 C14.3826172,1.95332031 14.2876953,1.90234375 14.1910156,1.90234375 C14.1435547,1.90234375 14.0960938,1.91464844 14.0521484,1.93925781 L12.1132813,3.05898438 C11.9796875,3.13632812 11.9339844,3.30859375 12.0113281,3.4421875 L12.359375,4.046875 Z" id="Shape"></path>
            </g>
        </g>
    </g>
</svg>