<?xml version="1.0" encoding="UTF-8"?>
<svg width="20px" height="17px" viewBox="0 0 20 17" version="1.1" xmlns="http://www.w3.org/2000/svg" xmlns:xlink="http://www.w3.org/1999/xlink">
    <!-- Generator: Sketch 52.2 (67145) - http://www.bohemiancoding.com/sketch -->
    <title>showMenu</title>
    <desc>Created with Sketch.</desc>
    <g id="Design" stroke="none" stroke-width="1" fill="none" fill-rule="evenodd">
        <g id="SVG" transform="translate(-479.000000, -95.000000)" fill-rule="nonzero">
            <g id="showMenu" transform="translate(476.000000, 91.000000)">
                <g id="Group-3" transform="translate(12.500000, 12.500000) scale(-1, 1) translate(-12.500000, -12.500000) ">
                    <rect id="Rectangle-path" x="0.75" y="0.5" width="24" height="24"></rect>
                    <path d="M9.6875,11.109375 L20.9375,11.109375 C21.040625,11.109375 21.125,11.025 21.125,10.921875 L21.125,9.609375 C21.125,9.50625 21.040625,9.421875 20.9375,9.421875 L9.6875,9.421875 C9.584375,9.421875 9.5,9.50625 9.5,9.609375 L9.5,10.921875 C9.5,11.025 9.584375,11.109375 9.6875,11.109375 Z M9.5,15.890625 C9.5,15.99375 9.584375,16.078125 9.6875,16.078125 L20.9375,16.078125 C21.040625,16.078125 21.125,15.99375 21.125,15.890625 L21.125,14.578125 C21.125,14.475 21.040625,14.390625 20.9375,14.390625 L9.6875,14.390625 C9.584375,14.390625 9.5,14.475 9.5,14.578125 L9.5,15.890625 Z M21.3125,4.5 L2.9375,4.5 C2.834375,4.5 2.75,4.584375 2.75,4.6875 L2.75,6 C2.75,6.103125 2.834375,6.1875 2.9375,6.1875 L21.3125,6.1875 C21.415625,6.1875 21.5,6.103125 21.5,6 L21.5,4.6875 C21.5,4.584375 21.415625,4.5 21.3125,4.5 Z M21.3125,19.3125 L2.9375,19.3125 C2.834375,19.3125 2.75,19.396875 2.75,19.5 L2.75,20.8125 C2.75,20.915625 2.834375,21 2.9375,21 L21.3125,21 C21.415625,21 21.5,20.915625 21.5,20.8125 L21.5,19.5 C21.5,19.396875 21.415625,19.3125 21.3125,19.3125 Z M2.8296875,12.9117187 L6.49296875,15.796875 C6.62890625,15.9046875 6.83046875,15.8085937 6.83046875,15.6351562 L6.83046875,9.86484375 C6.83046875,9.69140625 6.63125,9.5953125 6.49296875,9.703125 L2.8296875,12.5882812 C2.72421875,12.6703125 2.72421875,12.8296875 2.8296875,12.9117187 Z" id="Shape" fill="#C0C4CC"></path>
                </g>
            </g>
        </g>
    </g>
</svg>