<?xml version="1.0" encoding="UTF-8"?>
<svg width="21px" height="21px" viewBox="0 0 21 21" version="1.1" xmlns="http://www.w3.org/2000/svg" xmlns:xlink="http://www.w3.org/1999/xlink">
    <!-- Generator: Sketch 52.4 (67378) - http://www.bohemiancoding.com/sketch -->
    <title>member</title>
    <desc>Created with Sketch.</desc>
    <g id="image" stroke="none" stroke-width="1" fill="none" fill-rule="evenodd">
        <g id="SVG" transform="translate(-438.000000, -39.000000)" fill-rule="nonzero">
            <g id="member" transform="translate(438.000000, 39.000000)">
                <circle id="Mask" fill="#409EFF" cx="10.5" cy="10.5" r="10.5"></circle>
                <path d="M4.349997,19.0565965 C3.86636239,18.6980157 3.41466579,18.2982784 3,17.862514 C3.08167434,17.5790853 3.17868362,17.2998254 3.2909262,17.0254727 C3.68608153,16.0583476 4.24969782,15.1905256 4.96721671,14.4457529 C5.6847356,13.6988214 6.52080109,13.1137971 7.47749295,12.6949974 C6.18179941,11.721396 5.33949463,10.1390239 5.33949463,8.35372825 C5.33949463,5.39622514 7.64803367,3 10.4973116,3 C13.3465895,3 15.6551285,5.39622514 15.6551285,8.35372825 C15.6551285,10.1390239 14.8128238,11.721396 13.5420874,12.7036324 C14.4738221,13.1137971 15.3098876,13.6988214 16.0274065,14.4435941 C16.7449254,15.1883668 17.3106214,16.0561889 17.703697,17.023314 C17.8184129,17.3043523 17.9172167,17.5903266 18,17.880505 C17.5843015,18.3152895 17.13164,18.713974 16.6471088,19.0714286 C16.4299175,17.7648454 15.8320208,16.5614556 14.9105727,15.6050078 C13.731346,14.38099 12.165283,13.7074565 10.4973116,13.7074565 C8.82934013,13.7074565 7.26327716,14.38099 6.08405046,15.6050078 C5.16609007,16.5578354 4.56923646,17.7557391 4.349997,19.0565965 Z M10.4973116,12.0667978 C11.4519237,12.0667978 12.3503821,11.6803795 13.0263057,10.9787821 C13.7022293,10.2771846 14.0745072,9.34459972 14.0745072,8.35372825 C14.0745072,7.36285677 13.7022293,6.43027185 13.0263057,5.7286744 C12.3503821,5.02707695 11.4519237,4.64065866 10.4973116,4.64065866 C9.5426995,4.64065866 8.64424106,5.02707695 7.96831747,5.7286744 C7.29239387,6.43027185 6.92011595,7.36285677 6.92011595,8.35372825 C6.92011595,9.34459972 7.29239387,10.2771846 7.96831747,10.9787821 C8.64424106,11.6803795 9.5426995,12.0667978 10.4973116,12.0667978 Z" id="Combined-Shape" fill="#F8F8F8"></path>
            </g>
        </g>
    </g>
</svg>